<svg xmlns="http://www.w3.org/2000/svg" width="640" height="640" viewBox="0 0 640 640"><rect width="640" height="640" fill="#eee7dc"/><circle cx="570" cy="30" r="240" fill="#e7dbce"/><text x="42" y="63" font-family="Arial,sans-serif" font-size="17" letter-spacing="3" fill="#695f56">MEDIA PEMBELAJARAN WEB</text><g transform="translate(40 102)"><rect x="10" y="16" width="550" height="355" rx="20" fill="#d6cbbf"/><rect width="550" height="355" rx="20" fill="#fffdfa" stroke="#243442" stroke-width="3"/><path d="M0 56H550" stroke="#243442" stroke-width="3"/><circle cx="26" cy="28" r="6" fill="#b53a44"/><circle cx="47" cy="28" r="6" fill="#d2ab64"/><circle cx="68" cy="28" r="6" fill="#789a86"/><rect x="94" y="16" width="435" height="24" rx="8" fill="#eee9e1"/><rect x="28" y="82" width="494" height="210" rx="12" fill="#243442"/><circle cx="275" cy="187" r="36" fill="#b53a44"/><path d="M267 172l25 15-25 15z" fill="#fffdfa"/><rect x="28" y="313" width="302.5" height="9" rx="4" fill="#c7beb3"/><rect x="28" y="331" width="192.5" height="7" rx="3" fill="#e4dcd1"/></g><g transform="translate(226 495)"><rect width="190" height="80" rx="14" fill="#b53a44"/><path d="M24 36h10l14-12v32L34 44H24z" fill="#fffdfa"/><path d="M72 29v22m14-32v42m14-26v10m14-31v52m14-40v28m14-20v12m14-27v42" stroke="#fffdfa" stroke-width="5" stroke-linecap="round"/></g><text x="320" y="611" text-anchor="middle" font-family="Arial,sans-serif" font-size="16" fill="#695f56">BROWSER · VIDEO · AUDIO</text></svg>